<svg width="18" height="18" viewBox="0 0 18 18" fill="none" xmlns="http://www.w3.org/2000/svg">
<path d="M1 1L17 17" stroke="white" stroke-width="1.5" stroke-linecap="round" stroke-linejoin="round"/>
<path d="M8.02545 3.90625H10.4545C10.8403 3.90625 11.2103 4.0595 11.4831 4.33228C11.7558 4.60506 11.9091 4.97503 11.9091 5.3608V7.78989L12.6364 8.51716L17 5.3608V12.6335M11.9091 11.9063V12.6335C11.9091 13.0193 11.7558 13.3893 11.4831 13.662C11.2103 13.9348 10.8403 14.0881 10.4545 14.0881H2.45455C2.06878 14.0881 1.69881 13.9348 1.42603 13.662C1.15325 13.3893 1 13.0193 1 12.6335V5.3608C1 4.97503 1.15325 4.60506 1.42603 4.33228C1.69881 4.0595 2.06878 3.90625 2.45455 3.90625H3.90909L11.9091 11.9063Z" stroke="white" stroke-width="1.5" stroke-linecap="round" stroke-linejoin="round"/>
</svg>
