<svg width="21" height="21" viewBox="0 0 21 21" fill="none" xmlns="http://www.w3.org/2000/svg">
<path d="M7.33062 9.50293C7.1658 9.50293 7.00468 9.5518 6.86764 9.64337C6.7306 9.73494 6.62379 9.86509 6.56072 10.0174C6.49765 10.1696 6.48114 10.3372 6.5133 10.4988C6.54545 10.6605 6.62482 10.809 6.74136 10.9255C6.85791 11.0421 7.00639 11.1214 7.16804 11.1536C7.32969 11.1857 7.49725 11.1692 7.64952 11.1062C7.80179 11.0431 7.93194 10.9363 8.02351 10.7992C8.11508 10.6622 8.16395 10.5011 8.16395 10.3363C8.16395 10.1152 8.07615 9.90329 7.91987 9.74701C7.76359 9.59073 7.55163 9.50293 7.33062 9.50293ZM10.664 9.50293C10.4991 9.50293 10.338 9.5518 10.201 9.64337C10.0639 9.73494 9.95713 9.86509 9.89405 10.0174C9.83098 10.1696 9.81448 10.3372 9.84663 10.4988C9.87879 10.6605 9.95815 10.809 10.0747 10.9255C10.1912 11.0421 10.3397 11.1214 10.5014 11.1536C10.663 11.1857 10.8306 11.1692 10.9829 11.1062C11.1351 11.0431 11.2653 10.9363 11.3568 10.7992C11.4484 10.6622 11.4973 10.5011 11.4973 10.3363C11.4973 10.1152 11.4095 9.90329 11.2532 9.74701C11.0969 9.59073 10.885 9.50293 10.664 9.50293ZM13.9973 9.50293C13.8325 9.50293 13.6714 9.5518 13.5343 9.64337C13.3973 9.73494 13.2905 9.86509 13.2274 10.0174C13.1643 10.1696 13.1478 10.3372 13.18 10.4988C13.2121 10.6605 13.2915 10.809 13.408 10.9255C13.5246 11.0421 13.6731 11.1214 13.8347 11.1536C13.9964 11.1857 14.1639 11.1692 14.3162 11.1062C14.4685 11.0431 14.5986 10.9363 14.6902 10.7992C14.7817 10.6622 14.8306 10.5011 14.8306 10.3363C14.8306 10.1152 14.7428 9.90329 14.5865 9.74701C14.4303 9.59073 14.2183 9.50293 13.9973 9.50293ZM10.664 2.00293C9.5696 2.00293 8.48597 2.21848 7.47492 2.63727C6.46388 3.05606 5.54522 3.66988 4.77139 4.44371C3.20859 6.00651 2.33062 8.12612 2.33062 10.3363C2.32333 12.2605 2.98961 14.1267 4.21395 15.6113L2.54728 17.2779C2.43165 17.3951 2.35332 17.5439 2.32218 17.7056C2.29103 17.8672 2.30847 18.0345 2.37228 18.1863C2.4415 18.3362 2.5537 18.4622 2.69466 18.5483C2.83561 18.6343 2.99895 18.6765 3.16395 18.6696H10.664C12.8741 18.6696 14.9937 17.7916 16.5565 16.2288C18.1193 14.666 18.9973 12.5464 18.9973 10.3363C18.9973 8.12612 18.1193 6.00651 16.5565 4.44371C14.9937 2.8809 12.8741 2.00293 10.664 2.00293ZM10.664 17.0029H5.17228L5.94728 16.2279C6.10249 16.0718 6.18961 15.8606 6.18961 15.6404C6.18961 15.4203 6.10249 15.2091 5.94728 15.0529C4.85611 13.963 4.1766 12.5284 4.02453 10.9936C3.87246 9.4588 4.25724 7.91877 5.11331 6.63586C5.96938 5.35296 7.24378 4.40656 8.71938 3.95791C10.195 3.50925 11.7805 3.5861 13.2058 4.17536C14.6311 4.76461 15.808 5.82983 16.536 7.18951C17.264 8.54919 17.498 10.1192 17.1982 11.6321C16.8984 13.145 16.0834 14.5071 14.8919 15.4865C13.7004 16.4658 12.2063 17.0017 10.664 17.0029Z" fill="white"/>
</svg>
