<svg width="30" height="30" viewBox="0 0 30 30" fill="none" xmlns="http://www.w3.org/2000/svg">
<path d="M24.2389 6.20998C24.0214 5.99251 23.6699 5.99251 23.4524 6.20998L0.648455 29.0139C0.430984 29.2314 0.430984 29.5829 0.648455 29.8004C0.756913 29.9089 0.899299 29.9634 1.04168 29.9634C1.18407 29.9634 1.32646 29.9089 1.43491 29.8004L24.2389 6.99644C24.4563 6.77952 24.4563 6.42745 24.2389 6.20998Z" fill="white" fill-opacity="0.7"/>
<path d="M7.95019 20.1397L12.2418 15.8481L10.0014 13.6077C8.86402 12.4703 8.75946 11.423 9.65048 10.1081C9.77507 9.93572 10.5676 9.23213 11.2462 8.66481C11.6789 8.40674 11.9759 8.02463 12.1061 7.55465C12.2791 6.93004 12.1511 6.19531 11.7429 5.47949C11.6467 5.31486 9.35736 1.43596 7.24605 0.319676C6.85171 0.111103 6.40842 0.000976562 5.96291 0.000976562C5.22985 0.000976562 4.54017 0.28686 4.02235 0.804677L2.61129 2.2163C-1.50511 6.33325 -0.743122 11.4469 4.81493 17.0044L7.95019 20.1397Z" fill="white" fill-opacity="0.7"/>
<path d="M29.6775 22.7511C28.5607 20.6404 24.6823 18.3505 24.5116 18.2504C24.0138 17.9668 23.4937 17.8171 23.0076 17.8171C22.284 17.8171 21.6911 18.1486 21.3324 18.7515C20.7645 19.4307 20.0603 20.2232 19.8907 20.3462C18.5681 21.2416 17.5341 21.141 16.3895 19.9963L14.6002 18.207L10.3086 22.4986L12.9928 25.1828C16.1881 28.3787 19.2355 29.9989 22.0482 29.9989C22.0487 29.9989 22.0487 29.9989 22.0487 29.9989C24.1183 29.9989 26.0467 29.1196 27.7809 27.3859L29.1919 25.9748C30.0496 25.1177 30.2448 23.8224 29.6775 22.7511Z" fill="white" fill-opacity="0.7"/>
</svg>
