<svg width="40" height="10" viewBox="0 0 40 10" fill="none" xmlns="http://www.w3.org/2000/svg">
<path d="M0.111272 9H6.14727V7.32H1.95927V0.599999H0.111272V9ZM7.54096 9H13.937V7.356H9.37696V5.592H13.337V3.948H9.37696V2.244H13.877V0.599999H7.54096V9ZM14.86 9H16.744L17.512 7.116H21.064L21.832 9H23.764L20.164 0.539999H18.46L14.86 9ZM18.172 5.484L19.288 2.76L20.404 5.484H18.172ZM26.5412 9.06H28.1732L31.5692 0.599999H29.5772L27.3812 6.516L25.1852 0.599999H23.1452L26.5412 9.06ZM32.8652 9H39.2612V7.356H34.7012V5.592H38.6612V3.948H34.7012V2.244H39.2012V0.599999H32.8652V9Z" fill="white"/>
</svg>
