<svg width="14" height="12" viewBox="0 0 14 12" fill="none" xmlns="http://www.w3.org/2000/svg">
<path d="M9.18182 10.8176V9.72674C9.18182 9.14809 8.95195 8.59313 8.54278 8.18396C8.13361 7.77479 7.57865 7.54492 7 7.54492H3.18182C2.60316 7.54492 2.04821 7.77479 1.63904 8.18396C1.22987 8.59313 1 9.14809 1 9.72674V10.8176" stroke="#EB5757" stroke-linecap="round" stroke-linejoin="round"/>
<path d="M5.091 5.36364C6.29598 5.36364 7.27282 4.3868 7.27282 3.18182C7.27282 1.97683 6.29598 1 5.091 1C3.88601 1 2.90918 1.97683 2.90918 3.18182C2.90918 4.3868 3.88601 5.36364 5.091 5.36364Z" stroke="#EB5757" stroke-linecap="round" stroke-linejoin="round"/>
<path d="M10.2729 3.72754L13.0002 6.45481" stroke="#EB5757" stroke-linecap="round" stroke-linejoin="round"/>
<path d="M13.0002 3.72754L10.2729 6.45481" stroke="#EB5757" stroke-linecap="round" stroke-linejoin="round"/>
</svg>
