<svg width="20" height="16" viewBox="0 0 20 16" fill="none" xmlns="http://www.w3.org/2000/svg">
<path d="M12.8181 15.1814V13.6056C12.8181 12.7698 12.4861 11.9682 11.8951 11.3772C11.3041 10.7861 10.5025 10.4541 9.66664 10.4541H4.1515C3.31567 10.4541 2.51408 10.7861 1.92305 11.3772C1.33203 11.9682 1 12.7698 1 13.6056V15.1814" stroke="white" stroke-width="1.5" stroke-linecap="round" stroke-linejoin="round"/>
<path d="M6.91029 7.30301C8.65082 7.30301 10.0618 5.89203 10.0618 4.1515C10.0618 2.41098 8.65082 1 6.91029 1C5.16977 1 3.75879 2.41098 3.75879 4.1515C3.75879 5.89203 5.16977 7.30301 6.91029 7.30301Z" stroke="white" stroke-width="1.5" stroke-linecap="round" stroke-linejoin="round"/>
<path d="M15.9722 4.93652V9.66378" stroke="white" stroke-width="1.5" stroke-linecap="round" stroke-linejoin="round"/>
<path d="M18.3322 7.30469H13.605" stroke="white" stroke-width="1.5" stroke-linecap="round" stroke-linejoin="round"/>
</svg>
