<svg width="33" height="25" viewBox="0 0 33 25" fill="none" xmlns="http://www.w3.org/2000/svg">
<path d="M31.2321 4.125H24.75C24.5391 4.12529 24.344 4.01307 24.2384 3.83036L22.5603 0.893424C22.2452 0.342407 21.6597 0.00143868 21.0252 0H11.9748C11.3406 0.00115095 10.7553 0.340969 10.4397 0.891122L8.7616 3.83036C8.656 4.01307 8.46091 4.12529 8.25 4.125H1.76786C0.791565 4.125 0 4.91656 0 5.89286V22.3929C0 23.3691 0.791565 24.1607 1.76786 24.1607H31.2321C32.2084 24.1607 33 23.3691 33 22.3929V5.89286C33 4.91656 32.2084 4.125 31.2321 4.125ZM24.7595 16.1187C23.2897 19.9595 19.3656 22.2792 15.2921 21.7152C11.2186 21.1516 8.07189 17.8529 7.70071 13.7576L6.16851 15.2895C5.93746 15.5131 5.57002 15.5096 5.3427 15.2823C5.11539 15.055 5.11194 14.6875 5.33551 14.4565L7.83566 11.9561C8.06585 11.7259 8.43876 11.7259 8.66895 11.9561L11.1694 14.4565C11.3225 14.6044 11.384 14.8234 11.3299 15.0294C11.2761 15.2354 11.1153 15.3962 10.9093 15.4503C10.7032 15.5041 10.484 15.4429 10.3361 15.2895L8.89827 13.8534C9.30916 17.3557 12.0579 20.1249 15.5571 20.562C19.056 20.9993 22.4015 18.9915 23.6615 15.6981C23.7346 15.4984 23.9095 15.3537 24.1193 15.3191C24.3288 15.2846 24.5408 15.3657 24.674 15.5312C24.8073 15.6969 24.8409 15.9214 24.7624 16.1187H24.7595ZM27.6671 11.4698L25.1666 13.9702C24.9365 14.2001 24.5635 14.2001 24.3334 13.9702L21.8329 11.4698C21.6798 11.3219 21.6183 11.1029 21.6724 10.8969C21.7262 10.6909 21.8873 10.5297 22.0933 10.4759C22.2993 10.4218 22.5183 10.4834 22.6662 10.6365L24.1046 12.0752C23.6937 8.56766 20.9383 5.79589 17.4334 5.36371C13.9288 4.93153 10.5827 6.95115 9.33189 10.2535C9.2168 10.5579 8.87669 10.7116 8.57227 10.5965C8.26784 10.4814 8.11419 10.1413 8.22928 9.83687C9.68754 5.98551 13.6126 3.65138 17.693 4.20902C21.7734 4.76665 24.9278 8.06844 25.2993 12.1698L26.8315 10.6376C26.9794 10.4846 27.1984 10.4233 27.4044 10.4771C27.6104 10.5309 27.7712 10.692 27.8253 10.898C27.8791 11.1041 27.8179 11.323 27.6645 11.4709L27.6671 11.4698Z" fill="#C7C7C7"/>
</svg>
