<svg width="26" height="7" viewBox="0 0 26 7" fill="none" xmlns="http://www.w3.org/2000/svg">
<path d="M5.80605 3.27803C5.80605 4.67421 4.67421 5.80605 3.27803 5.80605C1.88184 5.80605 0.75 4.67421 0.75 3.27803C0.75 1.88184 1.88184 0.75 3.27803 0.75C4.67421 0.75 5.80605 1.88184 5.80605 3.27803Z" stroke="white" stroke-width="1.5" stroke-linecap="round" stroke-linejoin="round"/>
<path d="M15.4823 3.27803C15.4823 4.67421 14.3505 5.80605 12.9543 5.80605C11.5581 5.80605 10.4263 4.67421 10.4263 3.27803C10.4263 1.88184 11.5581 0.75 12.9543 0.75C14.3505 0.75 15.4823 1.88184 15.4823 3.27803Z" stroke="white" stroke-width="1.5" stroke-linecap="round" stroke-linejoin="round"/>
<path d="M25.1591 3.27803C25.1591 4.67421 24.0272 5.80605 22.6311 5.80605C21.2349 5.80605 20.103 4.67421 20.103 3.27803C20.103 1.88184 21.2349 0.75 22.6311 0.75C24.0272 0.75 25.1591 1.88184 25.1591 3.27803Z" stroke="white" stroke-width="1.5" stroke-linecap="round" stroke-linejoin="round"/>
</svg>
